<svg width="256" height="72" viewBox="0 0 256 72" fill="none" xmlns="http://www.w3.org/2000/svg">
<path d="M0 0H256V72H0V0Z" fill="#EFF8FD"/>
<path d="M204.051 35.5574H202.196V26.9556H204.316C205.482 26.9556 206.17 28.4094 206.17 31.1959C206.223 34.2247 205.429 35.5574 204.051 35.5574ZM212.37 21.5038V29.1969C211.787 25.0778 209.456 21.5038 204.846 21.5038H196.474V35.6785H188.155V33.5584H194.301V28.6517H188.102V26.6527H195.52V21.5038H182.273V26.6527C181.585 23.1999 179.359 21.5038 175.65 21.5038H166.484V34.467C161.238 36.8295 157.9 36.1026 157.794 31.4382C157.794 26.6527 160.814 25.4412 165.583 27.0768L165.106 21.8067C159.277 20.474 154.773 21.8067 152.124 27.0768C151.647 24.2903 150.27 21.6855 146.084 21.5038H136.811V35.5574H128.439V33.5584H134.586V28.6517H128.439V26.6527H135.857V21.6249L100.78 21.6855V32.2863L96.2234 21.6855H89.6001V35.7391H80.9103V33.7401H87.0567V28.9546H80.9103V26.8345H88.2224V21.8067H75.1348V34.6487C70.366 36.8901 66.5509 36.5266 66.5509 31.3776C66.5509 27.0162 70.154 25.6835 74.4459 27.3796L73.8631 21.9884C66.0741 20.1105 60.7224 23.5634 60.6165 31.8017C60.6165 38.7073 67.1338 42.9476 75.1348 40.2823V40.8275H94.8457V30.893L99.2436 40.8275H106.079V26.6527H111.536V40.8275H117.577V26.7739H122.558V40.7669H142.269V26.7133H144.123C145.183 26.7133 145.978 27.0768 145.978 28.4094C145.872 29.9844 144.706 30.4084 142.746 29.9844L145.395 40.7063H151.647L148.998 32.7709C150.27 32.4074 151.223 31.4382 151.647 30.1056C151.647 40.9486 159.913 42.2813 166.378 40.04V40.5852H172.047V26.5316H173.902C175.279 26.5316 175.65 27.4402 175.65 28.2277C175.756 29.5604 174.378 30.2267 172.418 29.8027L175.226 40.5246H181.161L178.617 32.5892C180.472 32.044 181.638 31.0142 182.22 29.1363V40.5246L205.799 40.464C209.032 40.464 211.469 37.7987 212.317 33.4372V40.464H218.357V26.4104H224.292V40.464H230.332V26.4104H234.995V21.3826L212.37 21.5038Z" fill="url(#paint0_linear_0_1)"/>
<path d="M15.737 25.6235H20.4527L17.6445 31.4387L18.1213 32.4079C18.1213 32.4079 22.2543 31.1964 22.3603 34.4674C22.4662 37.7991 17.5385 37.2539 16.0019 36.2241C15.2071 38.526 14.8362 40.2221 14.8362 40.2221C14.8362 40.2221 22.2013 43.6749 25.6454 37.7991C22.4662 33.6194 23.7379 29.258 23.7379 29.258L22.8371 29.0762L26.5992 21.6255H25.8044H15.631L15.737 25.6235Z" fill="url(#paint1_linear_0_1)"/>
<path d="M33.2225 36.4667C30.7851 36.4667 28.7716 34.1649 28.7716 31.3784C28.7716 28.592 30.7851 26.2902 33.2225 26.2902C35.6599 26.2902 37.6733 28.592 37.6733 31.3784C37.6733 34.1649 35.6599 36.4667 33.2225 36.4667ZM33.2225 21.5654C28.5067 21.5654 24.6917 25.9268 24.6917 31.3179C24.6917 36.709 28.5067 41.0703 33.2225 41.0703C37.9383 41.0703 41.7533 36.709 41.7533 31.3179C41.7533 25.9873 37.9383 21.5654 33.2225 21.5654Z" fill="url(#paint2_linear_0_1)"/>
<path d="M47.6349 34.1043C47.4229 34.3466 46.946 34.1043 47.052 33.862V29.0159C46.946 28.4707 47.5289 28.3496 47.7408 28.5919L49.5954 30.7121C49.8073 31.1361 49.9133 31.6207 49.5954 31.863L47.6349 34.1043ZM43.5019 48.8243C43.396 49.1877 43.131 49.7329 42.7071 49.7329H40.0578C39.5809 49.7329 39.4749 49.1877 39.6869 48.9454L42.6541 45.5532C43.025 45.1291 43.4489 45.432 43.4489 45.7955L43.5019 48.8243ZM31.8979 49.3695H22.6782C21.4065 49.4906 20.3468 49.1272 19.446 47.9156L12.7697 40.3436C11.71 39.3139 11.2861 37.9812 11.3921 36.285V25.9265C11.3921 24.4727 11.869 23.14 12.6638 22.2314L19.658 14.2354C20.3468 13.4479 21.2476 13.0238 22.5193 13.0238H31.9509C33.2225 12.9027 34.2823 13.2662 35.0771 14.3565L41.8593 22.1103C42.7601 23.0189 43.237 24.2304 43.237 25.6237V36.8908C43.343 38.3446 42.9191 39.4956 41.8593 40.2831L35.448 47.7339C34.4412 48.9454 33.2755 49.4906 31.8979 49.3695ZM29.8314 54.579L27.9769 56.6992C27.659 57.0626 27.1821 57.0626 26.9171 56.6992L24.9566 54.579C24.7447 54.2156 24.9566 53.7915 25.1686 53.7915H29.4075C29.9374 53.7915 30.0434 54.3367 29.8314 54.579ZM14.9952 50.0358H12.3459C11.975 50.0358 11.657 49.7935 11.657 49.2483L11.5511 46.2195C11.5511 45.6743 12.0279 45.5532 12.2399 45.8561L15.3661 49.2483C15.525 49.4906 15.3131 50.0358 14.9952 50.0358ZM11.2861 16.8401V13.9325C11.3921 13.3873 11.657 13.0238 12.0809 13.0238H14.7302C15.2071 13.0238 15.3131 13.569 15.1012 13.8113L12.1339 17.2036C11.71 17.4459 11.2861 17.2036 11.2861 16.8401ZM25.3276 8.11719L27.1821 5.99703C27.553 5.75472 27.9769 5.573 28.2418 5.99703L30.2023 8.11719C30.4143 8.48065 30.2023 8.90468 29.8844 8.90468H25.7514C25.1686 8.90468 25.0626 8.42007 25.3276 8.11719ZM40.0578 12.9633H42.7071C43.078 12.9633 43.5019 13.2056 43.396 13.7508V16.9007C43.396 17.2642 42.9191 17.4459 42.8131 17.143L39.8459 13.7508C39.4749 13.5085 39.6869 12.9633 40.0578 12.9633ZM7.04721 34.1649L5.19268 32.0447C4.98073 31.7418 4.82177 31.2572 5.19268 30.8938L7.15318 28.6525C7.36512 28.4102 7.842 28.6525 7.73603 29.0765L7.842 33.8014C7.842 34.286 7.36512 34.4072 7.04721 34.1649ZM46.8401 22.292V9.14698H35.448L27.5 0L19.552 9.08641H8.05395V22.2314L0 31.3784L8.15992 40.5859V53.7309H19.552L27.5 62.8779L35.448 53.6704H46.946V40.6465L55 31.4995L46.8401 22.292Z" fill="url(#paint3_linear_0_1)"/>
<defs>
<linearGradient id="paint0_linear_0_1" x1="147.806" y1="21.3521" x2="147.806" y2="40.9886" gradientUnits="userSpaceOnUse">
<stop stop-color="#008456"/>
<stop offset="0.2627" stop-color="#00784F"/>
<stop offset="0.4196" stop-color="#008456"/>
<stop offset="0.8392" stop-color="#006B47"/>
<stop offset="1" stop-color="#006B47"/>
</linearGradient>
<linearGradient id="paint1_linear_0_1" x1="14.8233" y1="31.4277" x2="26.5698" y2="31.4277" gradientUnits="userSpaceOnUse">
<stop stop-color="#CF9F69"/>
<stop offset="0.5137" stop-color="#B98853"/>
<stop offset="0.7608" stop-color="#A3713D"/>
<stop offset="1" stop-color="#A3713D"/>
</linearGradient>
<linearGradient id="paint2_linear_0_1" x1="24.6598" y1="31.3178" x2="41.7632" y2="31.3178" gradientUnits="userSpaceOnUse">
<stop stop-color="#CF9F69"/>
<stop offset="0.5137" stop-color="#B98853"/>
<stop offset="0.7608" stop-color="#A3713D"/>
<stop offset="1" stop-color="#A3713D"/>
</linearGradient>
<linearGradient id="paint3_linear_0_1" x1="27.5" y1="-1.81071e-05" x2="27.5" y2="62.8779" gradientUnits="userSpaceOnUse">
<stop stop-color="#CF9F69"/>
<stop offset="0.3569" stop-color="#B98853"/>
<stop offset="0.651" stop-color="#A3713D"/>
<stop offset="1" stop-color="#A3713D"/>
</linearGradient>
</defs>
</svg>
