<svg width="530" height="265" viewBox="0 0 530 265" fill="none" xmlns="http://www.w3.org/2000/svg">
<path opacity="0.5" d="M174.47 45.0898V14.2959H124.08" stroke="#1A3555"/>
<circle opacity="0.5" r="1.24965" transform="matrix(-1 0 0 1 174.12 45.4398)" fill="#1A3555" stroke="#1A3555"/>
<path opacity="0.5" d="M404.69 147.453V128.557H455.08" stroke="#1A3555"/>
<circle opacity="0.5" cx="405.04" cy="147.803" r="1.24965" fill="#1A3555" stroke="#1A3555"/>
<path opacity="0.5" d="M390.693 50.7804V17.397H441.083" stroke="#1A3555"/>
<circle opacity="0.5" cx="391.043" cy="52.0402" r="1.24965" fill="#1A3555" stroke="#1A3555"/>
<path opacity="0.5" d="M142.05 229.154V259.948H83.4883" stroke="#1A3555"/>
<circle opacity="0.5" cx="142.277" cy="228.454" r="1.59959" transform="rotate(-180 142.277 228.454)" fill="#1A3555" stroke="#1A3555"/>
<g opacity="0.5">
<circle r="1.24965" transform="matrix(1 0 0 -1 356.75 260.481)" fill="#1A3555" stroke="#1A3555"/>
</g>
<path opacity="0.5" d="M356.75 260.481H409.239" stroke="#1A3555"/>
<g opacity="0.5">
<circle cx="128.979" cy="144.12" r="1.24965" transform="rotate(-180 128.979 144.12)" fill="#1A3555" stroke="#1A3555"/>
</g>
<path opacity="0.5" d="M128.979 144.12H76.4896" stroke="#1A3555"/>
<path opacity="0.5" d="M448.793 7H450.267V1.72017H452.832V7H454.32V0.454545H448.793V7ZM455.906 9.45455H457.449V5.96875H457.512C457.755 6.44602 458.262 7.11506 459.387 7.11506C460.93 7.11506 462.085 5.89205 462.085 3.7358C462.085 1.55398 460.896 0.369318 459.383 0.369318C458.228 0.369318 457.747 1.06392 457.512 1.53693H457.423V0.454545H455.906V9.45455ZM457.419 3.72727C457.419 2.45739 457.964 1.63494 458.957 1.63494C459.984 1.63494 460.512 2.50852 460.512 3.72727C460.512 4.95455 459.975 5.84943 458.957 5.84943C457.973 5.84943 457.419 4.99716 457.419 3.72727ZM466.261 7.12784C468.179 7.12784 469.397 5.77699 469.397 3.75284C469.397 1.72443 468.179 0.369318 466.261 0.369318C464.343 0.369318 463.125 1.72443 463.125 3.75284C463.125 5.77699 464.343 7.12784 466.261 7.12784ZM466.27 5.89205C465.208 5.89205 464.689 4.94602 464.689 3.74858C464.689 2.55114 465.208 1.59233 466.27 1.59233C467.314 1.59233 467.833 2.55114 467.833 3.74858C467.833 4.94602 467.314 5.89205 466.27 5.89205ZM470.707 7H473.877C475.411 7 476.289 6.3054 476.289 5.22301C476.289 4.30682 475.577 3.66761 474.55 3.57812C475.424 3.41619 475.969 2.9517 475.969 2.21449C475.969 1.1108 475.002 0.454545 473.455 0.454545H470.707V7ZM472.151 5.78551V4.16193H473.877C474.444 4.16193 474.789 4.49006 474.789 5.03125C474.789 5.5 474.444 5.78551 473.877 5.78551H472.151ZM472.151 3.16477V1.69034H473.455C474.099 1.69034 474.491 1.96307 474.491 2.41051C474.491 2.87926 474.112 3.16477 473.485 3.16477H472.151ZM480.46 7.12784C481.985 7.12784 483.034 6.3821 483.306 5.24432L481.866 5.08239C481.657 5.63636 481.146 5.92614 480.481 5.92614C479.484 5.92614 478.824 5.26989 478.811 4.14915H483.37V3.67614C483.37 1.37926 481.99 0.369318 480.379 0.369318C478.504 0.369318 477.281 1.74574 477.281 3.76562C477.281 5.8196 478.487 7.12784 480.46 7.12784ZM478.815 3.10938C478.862 2.27415 479.48 1.57102 480.4 1.57102C481.287 1.57102 481.883 2.21875 481.892 3.10938H478.815ZM484.675 9.45455H486.218V5.96875H486.282C486.525 6.44602 487.032 7.11506 488.157 7.11506C489.7 7.11506 490.854 5.89205 490.854 3.7358C490.854 1.55398 489.665 0.369318 488.153 0.369318C486.998 0.369318 486.516 1.06392 486.282 1.53693H486.192V0.454545H484.675V9.45455ZM486.188 3.72727C486.188 2.45739 486.734 1.63494 487.727 1.63494C488.754 1.63494 489.282 2.50852 489.282 3.72727C489.282 4.95455 488.745 5.84943 487.727 5.84943C486.742 5.84943 486.188 4.99716 486.188 3.72727ZM492.175 7H493.718V4.53267H494.472L496.266 7H498.133L495.683 3.66761L498.107 0.454545H496.249L494.281 3.09659H493.718V0.454545H492.175V7ZM500.891 7.1321C501.918 7.1321 502.532 6.65057 502.813 6.10085H502.864V7H504.347V2.61932C504.347 0.889204 502.936 0.369318 501.688 0.369318C500.311 0.369318 499.255 0.982954 498.914 2.17614L500.354 2.38068C500.507 1.93324 500.942 1.54972 501.696 1.54972C502.412 1.54972 502.804 1.91619 502.804 2.55966V2.58523C502.804 3.02841 502.34 3.04972 501.185 3.1733C499.915 3.30966 498.701 3.68892 498.701 5.16335C498.701 6.45028 499.642 7.1321 500.891 7.1321ZM501.292 5.99858C500.648 5.99858 500.188 5.70455 500.188 5.13778C500.188 4.54545 500.703 4.2983 501.394 4.20028C501.799 4.14489 502.608 4.04261 502.809 3.88068V4.65199C502.809 5.38068 502.221 5.99858 501.292 5.99858ZM451.648 24.1278C453.293 24.1278 454.341 23.152 454.452 21.7628H452.977C452.845 22.4659 452.338 22.8707 451.661 22.8707C450.697 22.8707 450.075 22.0653 450.075 20.7273C450.075 19.4062 450.71 18.6136 451.661 18.6136C452.402 18.6136 452.858 19.0909 452.977 19.7216H454.452C454.345 18.3026 453.237 17.3693 451.639 17.3693C449.722 17.3693 448.511 18.7543 448.511 20.7528C448.511 22.7344 449.692 24.1278 451.648 24.1278ZM458.574 24.1278C460.491 24.1278 461.71 22.777 461.71 20.7528C461.71 18.7244 460.491 17.3693 458.574 17.3693C456.656 17.3693 455.437 18.7244 455.437 20.7528C455.437 22.777 456.656 24.1278 458.574 24.1278ZM458.582 22.892C457.521 22.892 457.001 21.946 457.001 20.7486C457.001 19.5511 457.521 18.5923 458.582 18.5923C459.626 18.5923 460.146 19.5511 460.146 20.7486C460.146 21.946 459.626 22.892 458.582 22.892ZM465.917 24.1278C467.442 24.1278 468.491 23.3821 468.763 22.2443L467.323 22.0824C467.114 22.6364 466.603 22.9261 465.938 22.9261C464.941 22.9261 464.281 22.2699 464.268 21.1491H468.827V20.6761C468.827 18.3793 467.447 17.3693 465.836 17.3693C463.961 17.3693 462.738 18.7457 462.738 20.7656C462.738 22.8196 463.944 24.1278 465.917 24.1278ZM464.272 20.1094C464.319 19.2741 464.937 18.571 465.857 18.571C466.744 18.571 467.34 19.2188 467.349 20.1094H464.272ZM469.553 25.9006H471.07V24H475.353V25.9006H476.844V22.7301H475.83V17.4545H471.1L470.912 19.7472C470.789 21.2131 470.627 22.2997 470.073 22.7301H469.553V25.9006ZM471.658 22.7301C472.071 22.1207 472.225 21.1321 472.336 19.7472L472.438 18.6989H474.355V22.7301H471.658ZM479.483 21.9119V17.4545H477.996V24H479.585L482.197 19.5384V24H483.689V17.4545H482.104L479.483 21.9119ZM486.76 17.4545H485.273V24H486.76V21.3537H489.296V24H490.779V17.4545H489.296V20.0881H486.76V17.4545ZM495.237 24.1278C496.763 24.1278 497.811 23.3821 498.084 22.2443L496.643 22.0824C496.435 22.6364 495.923 22.9261 495.259 22.9261C494.261 22.9261 493.601 22.2699 493.588 21.1491H498.148V20.6761C498.148 18.3793 496.767 17.3693 495.156 17.3693C493.281 17.3693 492.058 18.7457 492.058 20.7656C492.058 22.8196 493.264 24.1278 495.237 24.1278ZM493.592 20.1094C493.639 19.2741 494.257 18.571 495.178 18.571C496.064 18.571 496.661 19.2188 496.669 20.1094H493.592ZM500.94 17.4545H499.453V24H500.94V21.3537H503.475V24H504.958V17.4545H503.475V20.0881H500.94V17.4545ZM508.006 21.9119V17.4545H506.519V24H508.109L510.721 19.5384V24H512.212V17.4545H510.627L508.006 21.9119ZM517.666 24H519.11V17.4545H516.268C514.666 17.4545 513.673 18.277 513.677 19.5341C513.673 20.3608 514.125 20.9872 514.904 21.3068L513.439 24H514.956L516.298 21.5369H517.666V24ZM517.666 20.4119H516.217C515.539 20.4119 515.164 20.0582 515.169 19.5682C515.164 19.0781 515.561 18.7074 516.268 18.7074H517.666V20.4119ZM525.127 21.9119V17.4545H523.64V24H525.23L527.842 19.5384V24H529.333V17.4545H527.748L525.127 21.9119ZM448.793 41H450.267V35.7202H452.832V41H454.32V34.4545H448.793V41ZM455.906 43.4545H457.449V39.9688H457.512C457.755 40.446 458.262 41.1151 459.387 41.1151C460.93 41.1151 462.085 39.892 462.085 37.7358C462.085 35.554 460.896 34.3693 459.383 34.3693C458.228 34.3693 457.747 35.0639 457.512 35.5369H457.423V34.4545H455.906V43.4545ZM457.419 37.7273C457.419 36.4574 457.964 35.6349 458.957 35.6349C459.984 35.6349 460.512 36.5085 460.512 37.7273C460.512 38.9545 459.975 39.8494 458.957 39.8494C457.973 39.8494 457.419 38.9972 457.419 37.7273ZM464.893 38.9119V34.4545H463.406V41H464.995L467.608 36.5384V41H469.099V34.4545H467.514L464.893 38.9119ZM472.17 34.4545H470.683V41H472.17V38.3537H474.706V41H476.189V34.4545H474.706V37.0881H472.17V34.4545ZM477.017 35.7202H479.135V41H480.626V35.7202H482.744V34.4545H477.017V35.7202ZM486.6 41.1278C488.126 41.1278 489.174 40.3821 489.447 39.2443L488.007 39.0824C487.798 39.6364 487.287 39.9261 486.622 39.9261C485.625 39.9261 484.964 39.2699 484.951 38.1491H489.511V37.6761C489.511 35.3793 488.13 34.3693 486.52 34.3693C484.645 34.3693 483.422 35.7457 483.422 37.7656C483.422 39.8196 484.627 41.1278 486.6 41.1278ZM484.956 37.1094C485.002 36.2741 485.62 35.571 486.541 35.571C487.427 35.571 488.024 36.2188 488.032 37.1094H484.956ZM490.816 43.4545H492.359V39.9688H492.423C492.665 40.446 493.173 41.1151 494.298 41.1151C495.84 41.1151 496.995 39.892 496.995 37.7358C496.995 35.554 495.806 34.3693 494.293 34.3693C493.138 34.3693 492.657 35.0639 492.423 35.5369H492.333V34.4545H490.816V43.4545ZM492.329 37.7273C492.329 36.4574 492.874 35.6349 493.867 35.6349C494.894 35.6349 495.423 36.5085 495.423 37.7273C495.423 38.9545 494.886 39.8494 493.867 39.8494C492.883 39.8494 492.329 38.9972 492.329 37.7273ZM500.2 41.1321C501.227 41.1321 501.84 40.6506 502.121 40.1009H502.173V41H503.656V36.6193C503.656 34.8892 502.245 34.3693 500.996 34.3693C499.62 34.3693 498.563 34.983 498.222 36.1761L499.663 36.3807C499.816 35.9332 500.251 35.5497 501.005 35.5497C501.721 35.5497 502.113 35.9162 502.113 36.5597V36.5852C502.113 37.0284 501.648 37.0497 500.494 37.1733C499.224 37.3097 498.009 37.6889 498.009 39.1634C498.009 40.4503 498.951 41.1321 500.2 41.1321ZM500.6 39.9986C499.957 39.9986 499.496 39.7045 499.496 39.1378C499.496 38.5455 500.012 38.2983 500.702 38.2003C501.107 38.1449 501.917 38.0426 502.117 37.8807V38.652C502.117 39.3807 501.529 39.9986 500.6 39.9986Z" fill="#1A3555"/>
<path opacity="0.5" d="M416.681 261.835H419.851C421.385 261.835 422.263 261.14 422.263 260.058C422.263 259.142 421.551 258.502 420.524 258.413C421.398 258.251 421.943 257.786 421.943 257.049C421.943 255.946 420.976 255.289 419.429 255.289H416.681V261.835ZM418.125 260.62V258.997H419.851C420.418 258.997 420.763 259.325 420.763 259.866C420.763 260.335 420.418 260.62 419.851 260.62H418.125ZM418.125 257.999V256.525H419.429C420.073 256.525 420.465 256.798 420.465 257.245C420.465 257.714 420.085 257.999 419.459 257.999H418.125ZM426.391 261.963C428.309 261.963 429.527 260.612 429.527 258.588C429.527 256.559 428.309 255.204 426.391 255.204C424.474 255.204 423.255 256.559 423.255 258.588C423.255 260.612 424.474 261.963 426.391 261.963ZM426.4 260.727C425.339 260.727 424.819 259.781 424.819 258.583C424.819 257.386 425.339 256.427 426.4 256.427C427.444 256.427 427.964 257.386 427.964 258.583C427.964 259.781 427.444 260.727 426.4 260.727ZM430.475 260.041C430.513 261.255 431.625 261.963 433.138 261.963C434.689 261.963 435.81 261.225 435.81 260.019C435.81 259.137 435.209 258.532 434.433 258.485V258.417C435.183 258.217 435.661 257.748 435.661 257.041C435.661 255.937 434.706 255.204 433.172 255.204C431.74 255.204 430.662 255.946 430.641 257.088H432.162C432.179 256.649 432.631 256.342 433.244 256.342C433.858 256.342 434.229 256.67 434.229 257.156C434.229 257.603 433.888 257.936 433.249 257.936H432.247V259.031H433.249C433.892 259.031 434.314 259.393 434.314 259.921C434.314 260.518 433.79 260.808 433.129 260.808C432.477 260.808 432.034 260.526 432.004 260.041H430.475ZM437.024 261.835H440.195C441.729 261.835 442.607 261.14 442.607 260.058C442.607 259.142 441.895 258.502 440.868 258.413C441.742 258.251 442.287 257.786 442.287 257.049C442.287 255.946 441.32 255.289 439.773 255.289H437.024V261.835ZM438.469 260.62V258.997H440.195C440.762 258.997 441.107 259.325 441.107 259.866C441.107 260.335 440.762 260.62 440.195 260.62H438.469ZM438.469 257.999V256.525H439.773C440.416 256.525 440.808 256.798 440.808 257.245C440.808 257.714 440.429 257.999 439.803 257.999H438.469ZM443.88 264.289H445.422V260.803H445.486C445.729 261.281 446.236 261.95 447.361 261.95C448.904 261.95 450.059 260.727 450.059 258.571C450.059 256.389 448.87 255.204 447.357 255.204C446.202 255.204 445.721 255.899 445.486 256.372H445.397V255.289H443.88V264.289ZM445.393 258.562C445.393 257.292 445.938 256.47 446.931 256.47C447.958 256.47 448.486 257.343 448.486 258.562C448.486 259.789 447.949 260.684 446.931 260.684C445.947 260.684 445.393 259.832 445.393 258.562ZM453.263 261.967C454.29 261.967 454.904 261.485 455.185 260.936H455.236V261.835H456.719V257.454C456.719 255.724 455.309 255.204 454.06 255.204C452.684 255.204 451.627 255.818 451.286 257.011L452.726 257.215C452.88 256.768 453.314 256.384 454.069 256.384C454.785 256.384 455.177 256.751 455.177 257.394V257.42C455.177 257.863 454.712 257.884 453.557 258.008C452.287 258.144 451.073 258.524 451.073 259.998C451.073 261.285 452.015 261.967 453.263 261.967ZM453.664 260.833C453.02 260.833 452.56 260.539 452.56 259.973C452.56 259.38 453.076 259.133 453.766 259.035C454.171 258.98 454.981 258.877 455.181 258.715V259.487C455.181 260.215 454.593 260.833 453.664 260.833ZM457.537 256.555H459.655V261.835H461.147V256.555H463.265V255.289H457.537V256.555Z" fill="#1A3555"/>
<path opacity="0.5" d="M12.6761 15.1321C13.7031 15.1321 14.3168 14.6506 14.598 14.1009H14.6491V15H16.1321V10.6193C16.1321 8.8892 14.7216 8.36932 13.473 8.36932C12.0966 8.36932 11.0398 8.98295 10.6989 10.1761L12.1392 10.3807C12.2926 9.93324 12.7273 9.54972 13.4815 9.54972C14.1974 9.54972 14.5895 9.91619 14.5895 10.5597V10.5852C14.5895 11.0284 14.125 11.0497 12.9702 11.1733C11.7003 11.3097 10.4858 11.6889 10.4858 13.1634C10.4858 14.4503 11.4276 15.1321 12.6761 15.1321ZM13.0767 13.9986C12.4332 13.9986 11.973 13.7045 11.973 13.1378C11.973 12.5455 12.4886 12.2983 13.179 12.2003C13.5838 12.1449 14.3935 12.0426 14.5938 11.8807V12.652C14.5938 13.3807 14.0057 13.9986 13.0767 13.9986ZM18.4077 17.4418C19.6094 17.4418 20.304 16.8196 20.6747 15.7926L23.304 8.46307L21.6548 8.45455L20.142 13.3977H20.0739L18.5653 8.45455H16.929L19.3026 15.1364L19.1705 15.4901C18.8764 16.2145 18.4332 16.2699 17.7599 16.0781L17.402 17.2756C17.6108 17.3651 17.9858 17.4418 18.4077 17.4418ZM24.0167 9.72017H26.1346V15H27.6261V9.72017H29.744V8.45455H24.0167V9.72017ZM33.6005 15.1278C35.1261 15.1278 36.1744 14.3821 36.4471 13.2443L35.0067 13.0824C34.7979 13.6364 34.2866 13.9261 33.6218 13.9261C32.6246 13.9261 31.9641 13.2699 31.9513 12.1491H36.511V11.6761C36.511 9.37926 35.1303 8.36932 33.5195 8.36932C31.6445 8.36932 30.4215 9.74574 30.4215 11.7656C30.4215 13.8196 31.6275 15.1278 33.6005 15.1278ZM31.9556 11.1094C32.0025 10.2741 32.6204 9.57102 33.5408 9.57102C34.4272 9.57102 35.0238 10.2188 35.0323 11.1094H31.9556ZM39.3033 8.45455H37.8161V15H39.3033V12.3537H41.8388V15H43.3217V8.45455H41.8388V11.0881H39.3033V8.45455ZM44.1495 9.72017H46.2674V15H47.7589V9.72017H49.8768V8.45455H44.1495V9.72017ZM52.5923 12.9119V8.45455H51.1051V15H52.6946L55.3068 10.5384V15H56.7983V8.45455H55.2131L52.5923 12.9119ZM61.3526 17.2244H62.8995V15.1278C64.8256 15.1278 66.1509 13.7642 66.1509 11.7528C66.1509 9.73722 64.8256 8.36932 62.8995 8.36932V6.27273H61.3526V8.36932C59.4265 8.36932 58.1012 9.73722 58.1012 11.7528C58.1012 13.7642 59.4265 15.1278 61.3526 15.1278V17.2244ZM61.3526 13.8835C60.2617 13.8835 59.6779 12.9205 59.6779 11.7528C59.6779 10.5852 60.2532 9.61364 61.3526 9.61364V13.8835ZM62.8995 13.8835V9.61364C63.9989 9.61364 64.57 10.5852 64.57 11.7528C64.57 12.9205 63.9989 13.8835 62.8995 13.8835ZM68.94 12.9119V8.45455H67.4528V15H69.0423L71.6545 10.5384V15H73.146V8.45455H71.5607L68.94 12.9119ZM74.7301 15H76.2727V12.5327H77.027L78.821 15H80.6875L78.2372 11.6676L80.6619 8.45455H78.804L76.8352 11.0966H76.2727V8.45455H74.7301V15ZM83.4457 15.1321C84.4727 15.1321 85.0863 14.6506 85.3675 14.1009H85.4187V15H86.9016V10.6193C86.9016 8.8892 85.4911 8.36932 84.2425 8.36932C82.8661 8.36932 81.8093 8.98295 81.4684 10.1761L82.9087 10.3807C83.0621 9.93324 83.4968 9.54972 84.2511 9.54972C84.967 9.54972 85.359 9.91619 85.359 10.5597V10.5852C85.359 11.0284 84.8945 11.0497 83.7397 11.1733C82.4698 11.3097 81.2553 11.6889 81.2553 13.1634C81.2553 14.4503 82.1971 15.1321 83.4457 15.1321ZM83.8462 13.9986C83.2028 13.9986 82.7425 13.7045 82.7425 13.1378C82.7425 12.5455 83.2582 12.2983 83.9485 12.2003C84.3533 12.1449 85.163 12.0426 85.3633 11.8807V12.652C85.3633 13.3807 84.7752 13.9986 83.8462 13.9986ZM93.9798 8.45455H92.5053V13.7344H89.94V8.45455H88.4528V15H93.9798V17.1051H95.4883V13.8494H93.9798V8.45455ZM98.19 12.9119V8.45455H96.7028V15H98.2923L100.904 10.5384V15H102.396V8.45455H100.811L98.19 12.9119ZM107.849 15H109.294V8.45455H106.452C104.849 8.45455 103.857 9.27699 103.861 10.5341C103.857 11.3608 104.308 11.9872 105.088 12.3068L103.622 15H105.139L106.482 12.5369H107.849V15ZM107.849 11.4119H106.401C105.723 11.4119 105.348 11.0582 105.352 10.5682C105.348 10.0781 105.744 9.70739 106.452 9.70739H107.849V11.4119Z" fill="#1A3555"/>
<path opacity="0.5" d="M463.627 132.488C465.545 132.488 466.763 131.137 466.763 129.113C466.763 127.085 465.545 125.73 463.627 125.73C461.709 125.73 460.491 127.085 460.491 129.113C460.491 131.137 461.709 132.488 463.627 132.488ZM463.635 131.252C462.574 131.252 462.055 130.306 462.055 129.109C462.055 127.911 462.574 126.953 463.635 126.953C464.68 126.953 465.199 127.911 465.199 129.109C465.199 130.306 464.68 131.252 463.635 131.252ZM467.363 127.081H469.481V132.36H470.973V127.081H473.09V125.815H467.363V127.081ZM479.517 125.815H478.034V129.011C477.659 129.105 477.288 129.156 476.883 129.156C475.971 129.156 475.524 128.832 475.524 127.988V125.806H474.049V127.988C474.049 129.659 475.136 130.421 476.883 130.421C477.267 130.421 477.667 130.37 478.034 130.285V132.36H479.517V125.815ZM483.966 132.488C485.492 132.488 486.54 131.742 486.813 130.605L485.373 130.443C485.164 130.997 484.653 131.286 483.988 131.286C482.991 131.286 482.33 130.63 482.317 129.509H486.877V129.036C486.877 126.74 485.496 125.73 483.885 125.73C482.01 125.73 480.787 127.106 480.787 129.126C480.787 131.18 481.993 132.488 483.966 132.488ZM482.322 128.47C482.368 127.634 482.986 126.931 483.907 126.931C484.793 126.931 485.39 127.579 485.398 128.47H482.322ZM487.637 127.081H489.754V132.36H491.246V127.081H493.364V125.815H487.637V127.081ZM496.079 127.946V125.815H494.592V132.36H497.567C499.233 132.36 500.192 131.44 500.196 130.153C500.192 128.832 499.233 127.946 497.567 127.946H496.079ZM501.01 132.36H502.552V125.815H501.01V132.36ZM496.079 129.211H497.567C498.236 129.211 498.717 129.608 498.717 130.174C498.717 130.715 498.236 131.095 497.567 131.095H496.079V129.211Z" fill="#1A3555"/>
<g opacity="0.5">
<path d="M3.76278 131.224H5.30966V129.128C7.2358 129.128 8.56108 127.764 8.56108 125.753C8.56108 123.737 7.2358 122.369 5.30966 122.369V120.273H3.76278V122.369C1.83665 122.369 0.511364 123.737 0.511364 125.753C0.511364 127.764 1.83665 129.128 3.76278 129.128V131.224ZM3.76278 127.884C2.67188 127.884 2.08807 126.92 2.08807 125.753C2.08807 124.585 2.66335 123.614 3.76278 123.614V127.884ZM5.30966 127.884V123.614C6.40909 123.614 6.98011 124.585 6.98011 125.753C6.98011 126.92 6.40909 127.884 5.30966 127.884ZM11.3501 126.912V122.455H9.86293V129H11.4524L14.0646 124.538V129H15.5561V122.455H13.9709L11.3501 126.912ZM19.9954 129.128C21.6403 129.128 22.6886 128.152 22.7994 126.763H21.3249C21.1928 127.466 20.6857 127.871 20.0082 127.871C19.0451 127.871 18.4229 127.065 18.4229 125.727C18.4229 124.406 19.0579 123.614 20.0082 123.614C20.7496 123.614 21.2056 124.091 21.3249 124.722H22.7994C22.6928 123.303 21.5849 122.369 19.9869 122.369C18.0692 122.369 16.859 123.754 16.859 125.753C16.859 127.734 18.0394 129.128 19.9954 129.128ZM24.0661 129H25.6087V126.533H26.3629L28.157 129H30.0234L27.5732 125.668L29.9979 122.455H28.1399L26.1712 125.097H25.6087V122.455H24.0661V129ZM32.7816 129.132C33.8086 129.132 34.4222 128.651 34.7035 128.101H34.7546V129H36.2376V124.619C36.2376 122.889 34.8271 122.369 33.5785 122.369C32.2021 122.369 31.1452 122.983 30.8043 124.176L32.2447 124.381C32.3981 123.933 32.8327 123.55 33.587 123.55C34.3029 123.55 34.695 123.916 34.695 124.56V124.585C34.695 125.028 34.2305 125.05 33.0756 125.173C31.8058 125.31 30.5913 125.689 30.5913 127.163C30.5913 128.45 31.533 129.132 32.7816 129.132ZM33.1822 127.999C32.5387 127.999 32.0785 127.705 32.0785 127.138C32.0785 126.545 32.5941 126.298 33.2844 126.2C33.6893 126.145 34.4989 126.043 34.6992 125.881V126.652C34.6992 127.381 34.1112 127.999 33.1822 127.999ZM37.337 129H37.8143C39.2205 129 39.8555 128.011 39.9577 125.83L40.06 123.72H41.9393V129H43.4308V122.455H38.658L38.543 125.352C38.4705 127.189 38.2319 127.73 37.5543 127.73H37.3285L37.337 129ZM46.4712 124.585V122.455H44.984V129H47.9585C49.6246 129 50.5835 128.08 50.5877 126.793C50.5835 125.472 49.6246 124.585 47.9585 124.585H46.4712ZM46.4712 125.851H47.9585C48.6275 125.851 49.109 126.247 49.109 126.814C49.109 127.355 48.6275 127.734 47.9585 127.734H46.4712V125.851ZM53.397 122.455H51.9098V129H53.397V126.354H55.9325V129H57.4155V122.455H55.9325V125.088H53.397V122.455ZM60.8597 129.132C61.8867 129.132 62.5004 128.651 62.7816 128.101H62.8327V129H64.3157V124.619C64.3157 122.889 62.9052 122.369 61.6566 122.369C60.2802 122.369 59.2234 122.983 58.8825 124.176L60.3228 124.381C60.4762 123.933 60.9109 123.55 61.6651 123.55C62.381 123.55 62.7731 123.916 62.7731 124.56V124.585C62.7731 125.028 62.3086 125.05 61.1538 125.173C59.8839 125.31 58.6694 125.689 58.6694 127.163C58.6694 128.45 59.6112 129.132 60.8597 129.132ZM61.2603 127.999C60.6168 127.999 60.1566 127.705 60.1566 127.138C60.1566 126.545 60.6722 126.298 61.3626 126.2C61.7674 126.145 62.5771 126.043 62.7773 125.881V126.652C62.7773 127.381 62.1893 127.999 61.2603 127.999ZM69.7362 129H71.1808V122.455H68.3384C66.7362 122.455 65.7433 123.277 65.7475 124.534C65.7433 125.361 66.195 125.987 66.9748 126.307L65.5089 129H67.0259L68.3683 126.537H69.7362V129ZM69.7362 125.412H68.2873C67.6097 125.412 67.2347 125.058 67.239 124.568C67.2347 124.078 67.631 123.707 68.3384 123.707H69.7362V125.412ZM0.792614 146H2.26705V140.72H4.83239V146H6.3196V139.455H0.792614V146ZM9.78942 146.132C10.8164 146.132 11.43 145.651 11.7113 145.101H11.7624V146H13.2454V141.619C13.2454 139.889 11.8349 139.369 10.5863 139.369C9.20987 139.369 8.15305 139.983 7.81214 141.176L9.25249 141.381C9.40589 140.933 9.84055 140.55 10.5948 140.55C11.3107 140.55 11.7028 140.916 11.7028 141.56V141.585C11.7028 142.028 11.2383 142.05 10.0835 142.173C8.81357 142.31 7.59908 142.689 7.59908 144.163C7.59908 145.45 8.54084 146.132 9.78942 146.132ZM10.19 144.999C9.54652 144.999 9.08629 144.705 9.08629 144.138C9.08629 143.545 9.60192 143.298 10.2923 143.2C10.6971 143.145 11.5067 143.043 11.707 142.881V143.652C11.707 144.381 11.119 144.999 10.19 144.999ZM18.5636 144.206L16.6715 139.455H14.7965V146H16.2837V141.589L18.0266 146H19.1048L20.9073 141.543V146H22.3817V139.455H20.5067L18.5636 144.206ZM27.8065 146H29.2511V139.455H26.4087C24.8065 139.455 23.8136 140.277 23.8178 141.534C23.8136 142.361 24.2653 142.987 25.0451 143.307L23.5792 146H25.0962L26.4386 143.537H27.8065V146ZM27.8065 142.412H26.3576C25.68 142.412 25.305 142.058 25.3093 141.568C25.305 141.078 25.7013 140.707 26.4087 140.707H27.8065V142.412ZM30.0714 140.72H32.1893V146H33.6808V140.72H35.7987V139.455H30.0714V140.72ZM38.5142 141.585V139.455H37.027V146H40.0014C41.6676 146 42.6264 145.08 42.6307 143.793C42.6264 142.472 41.6676 141.585 40.0014 141.585H38.5142ZM38.5142 142.851H40.0014C40.6705 142.851 41.152 143.247 41.152 143.814C41.152 144.355 40.6705 144.734 40.0014 144.734H38.5142V142.851Z" fill="#1A3555"/>
<path d="M46.9293 146H50.0998C51.6339 146 52.5117 145.305 52.5117 144.223C52.5117 143.307 51.8001 142.668 50.7731 142.578C51.6467 142.416 52.1921 141.952 52.1921 141.214C52.1921 140.111 51.2248 139.455 49.6779 139.455H46.9293V146ZM48.3739 144.786V143.162H50.0998C50.6665 143.162 51.0117 143.49 51.0117 144.031C51.0117 144.5 50.6665 144.786 50.0998 144.786H48.3739ZM48.3739 142.165V140.69H49.6779C50.3214 140.69 50.7134 140.963 50.7134 141.411C50.7134 141.879 50.3342 142.165 49.7077 142.165H48.3739ZM2.67614 163.132C3.70312 163.132 4.31676 162.651 4.59801 162.101H4.64915V163H6.1321V158.619C6.1321 156.889 4.72159 156.369 3.47301 156.369C2.09659 156.369 1.03977 156.983 0.698864 158.176L2.1392 158.381C2.29261 157.933 2.72727 157.55 3.48153 157.55C4.19744 157.55 4.58949 157.916 4.58949 158.56V158.585C4.58949 159.028 4.125 159.05 2.97017 159.173C1.70028 159.31 0.485795 159.689 0.485795 161.163C0.485795 162.45 1.42756 163.132 2.67614 163.132ZM3.0767 161.999C2.43324 161.999 1.97301 161.705 1.97301 161.138C1.97301 160.545 2.48864 160.298 3.17898 160.2C3.58381 160.145 4.39347 160.043 4.59375 159.881V160.652C4.59375 161.381 4.00568 161.999 3.0767 161.999ZM7.68324 163H9.15767V157.72H11.723V163H13.2102V156.455H7.68324V163ZM14.7965 163H16.271V157.72H18.8363V163H20.3235V156.455H14.7965V163ZM23.7933 163.132C24.8203 163.132 25.4339 162.651 25.7152 162.101H25.7663V163H27.2493V158.619C27.2493 156.889 25.8388 156.369 24.5902 156.369C23.2138 156.369 22.157 156.983 21.8161 158.176L23.2564 158.381C23.4098 157.933 23.8445 157.55 24.5987 157.55C25.3146 157.55 25.7067 157.916 25.7067 158.56V158.585C25.7067 159.028 25.2422 159.05 24.0874 159.173C22.8175 159.31 21.603 159.689 21.603 161.163C21.603 162.45 22.5447 163.132 23.7933 163.132ZM24.1939 161.999C23.5504 161.999 23.0902 161.705 23.0902 161.138C23.0902 160.545 23.6058 160.298 24.2962 160.2C24.701 160.145 25.5107 160.043 25.7109 159.881V160.652C25.7109 161.381 25.1229 161.999 24.1939 161.999ZM28.8004 165.455H30.343V161.969H30.407C30.6499 162.446 31.157 163.115 32.282 163.115C33.8246 163.115 34.9794 161.892 34.9794 159.736C34.9794 157.554 33.7905 156.369 32.2777 156.369C31.1229 156.369 30.6413 157.064 30.407 157.537H30.3175V156.455H28.8004V165.455ZM30.3132 159.727C30.3132 158.457 30.8587 157.635 31.8516 157.635C32.8786 157.635 33.407 158.509 33.407 159.727C33.407 160.955 32.87 161.849 31.8516 161.849C30.8672 161.849 30.3132 160.997 30.3132 159.727ZM38.1839 163.132C39.2109 163.132 39.8246 162.651 40.1058 162.101H40.157V163H41.6399V158.619C41.6399 156.889 40.2294 156.369 38.9808 156.369C37.6044 156.369 36.5476 156.983 36.2067 158.176L37.647 158.381C37.8004 157.933 38.2351 157.55 38.9893 157.55C39.7053 157.55 40.0973 157.916 40.0973 158.56V158.585C40.0973 159.028 39.6328 159.05 38.478 159.173C37.2081 159.31 35.9936 159.689 35.9936 161.163C35.9936 162.45 36.9354 163.132 38.1839 163.132ZM38.5845 161.999C37.9411 161.999 37.4808 161.705 37.4808 161.138C37.4808 160.545 37.9964 160.298 38.6868 160.2C39.0916 160.145 39.9013 160.043 40.1016 159.881V160.652C40.1016 161.381 39.5135 161.999 38.5845 161.999ZM42.4581 157.72H44.576V163H46.0675V157.72H48.1854V156.455H42.4581V157.72ZM52.0419 163.128C53.5675 163.128 54.6158 162.382 54.8885 161.244L53.4482 161.082C53.2393 161.636 52.728 161.926 52.0632 161.926C51.0661 161.926 50.4055 161.27 50.3928 160.149H54.9524V159.676C54.9524 157.379 53.5717 156.369 51.9609 156.369C50.0859 156.369 48.8629 157.746 48.8629 159.766C48.8629 161.82 50.0689 163.128 52.0419 163.128ZM50.397 159.109C50.4439 158.274 51.0618 157.571 51.9822 157.571C52.8686 157.571 53.4652 158.219 53.4737 159.109H50.397Z" fill="url(#paint0_linear_0_1)"/>
</g>
<path opacity="0.5" d="M31.6477 261.779C33.2926 261.779 34.3409 260.803 34.4517 259.414H32.9773C32.8452 260.117 32.3381 260.522 31.6605 260.522C30.6974 260.522 30.0753 259.717 30.0753 258.379C30.0753 257.058 30.7102 256.265 31.6605 256.265C32.402 256.265 32.858 256.742 32.9773 257.373H34.4517C34.3452 255.954 33.2372 255.021 31.6392 255.021C29.7216 255.021 28.5114 256.406 28.5114 258.404C28.5114 260.386 29.6918 261.779 31.6477 261.779ZM35.255 256.372H37.3729V261.651H38.8643V256.372H40.9822V255.106H35.255V256.372ZM44.7962 261.779C46.7138 261.779 47.9325 260.428 47.9325 258.404C47.9325 256.376 46.7138 255.021 44.7962 255.021C42.8786 255.021 41.6598 256.376 41.6598 258.404C41.6598 260.428 42.8786 261.779 44.7962 261.779ZM44.8047 260.543C43.7436 260.543 43.2237 259.597 43.2237 258.4C43.2237 257.203 43.7436 256.244 44.8047 256.244C45.8487 256.244 46.3686 257.203 46.3686 258.4C46.3686 259.597 45.8487 260.543 44.8047 260.543ZM49.2418 264.106H50.7844V260.62H50.8484C51.0913 261.097 51.5984 261.766 52.7234 261.766C54.266 261.766 55.4208 260.543 55.4208 258.387C55.4208 256.205 54.2319 255.021 52.7191 255.021C51.5643 255.021 51.0827 255.715 50.8484 256.188H50.7589V255.106H49.2418V264.106ZM50.7546 258.379C50.7546 257.109 51.3001 256.286 52.293 256.286C53.32 256.286 53.8484 257.16 53.8484 258.379C53.8484 259.606 53.3114 260.501 52.293 260.501C51.3086 260.501 50.7546 259.649 50.7546 258.379ZM58.229 255.106H56.7418V261.651H58.229V259.005H60.7646V261.651H62.2475V255.106H60.7646V257.739H58.229V255.106ZM66.6634 261.779C68.581 261.779 69.7997 260.428 69.7997 258.404C69.7997 256.376 68.581 255.021 66.6634 255.021C64.7457 255.021 63.527 256.376 63.527 258.404C63.527 260.428 64.7457 261.779 66.6634 261.779ZM66.6719 260.543C65.6108 260.543 65.0909 259.597 65.0909 258.4C65.0909 257.203 65.6108 256.244 66.6719 256.244C67.7159 256.244 68.2358 257.203 68.2358 258.4C68.2358 259.597 67.7159 260.543 66.6719 260.543Z" fill="#1A3555"/>
<defs>
<linearGradient id="paint0_linear_0_1" x1="5.24133" y1="128.6" x2="100.945" y2="148.707" gradientUnits="userSpaceOnUse">
<stop stop-color="#1482E8"/>
<stop offset="1" stop-color="#28C6DC"/>
</linearGradient>
</defs>
</svg>
