<svg width="377" height="387" viewBox="0 0 377 387" fill="none" xmlns="http://www.w3.org/2000/svg">
<g opacity="0.5">
<circle cx="82" cy="137.5" r="2.5" transform="rotate(180 82 137.5)" fill="#1A3555"/>
<path d="M82 138L47 138" stroke="#004C92"/>
</g>
<g opacity="0.5">
<circle cx="85" cy="222.5" r="2.5" transform="rotate(180 85 222.5)" fill="#1A3555"/>
<path d="M85 222L59 222" stroke="#004C92"/>
</g>
<g opacity="0.5">
<circle cx="321.5" cy="311.5" r="2.5" transform="rotate(90 321.5 311.5)" fill="#1A3555"/>
<path d="M321 311.5L321 337.5" stroke="#004C92"/>
</g>
<g opacity="0.5">
<circle cx="220.5" cy="53" r="2.5" transform="rotate(-90 220.5 53)" fill="#1A3555"/>
<path d="M221 53L221 27" stroke="#004C92"/>
</g>
<path opacity="0.5" d="M8.936 129.6C9.728 129.6 10.388 129.864 10.916 130.392C11.452 130.92 11.72 131.576 11.72 132.36C11.72 133.136 11.452 133.792 10.916 134.328C10.388 134.856 9.728 135.12 8.936 135.12H7.22V138H5.84V129.6H8.936ZM8.936 133.824C9.344 133.824 9.68 133.688 9.944 133.416C10.208 133.136 10.34 132.784 10.34 132.36C10.34 131.936 10.208 131.588 9.944 131.316C9.68 131.036 9.344 130.896 8.936 130.896H7.22V133.824H8.936ZM19.8678 136.896C19.0278 137.736 17.9998 138.156 16.7838 138.156C15.5678 138.156 14.5358 137.736 13.6878 136.896C12.8478 136.048 12.4278 135.016 12.4278 133.8C12.4278 132.584 12.8478 131.556 13.6878 130.716C14.5358 129.868 15.5678 129.444 16.7838 129.444C17.9998 129.444 19.0278 129.868 19.8678 130.716C20.7158 131.556 21.1398 132.584 21.1398 133.8C21.1398 135.016 20.7158 136.048 19.8678 136.896ZM14.6598 135.96C15.2358 136.528 15.9438 136.812 16.7838 136.812C17.6238 136.812 18.3278 136.528 18.8958 135.96C19.4718 135.384 19.7598 134.664 19.7598 133.8C19.7598 132.936 19.4718 132.22 18.8958 131.652C18.3278 131.076 17.6238 130.788 16.7838 130.788C15.9438 130.788 15.2358 131.076 14.6598 131.652C14.0918 132.22 13.8078 132.936 13.8078 133.8C13.8078 134.664 14.0918 135.384 14.6598 135.96ZM24.8782 138.156C24.0702 138.156 23.3822 137.972 22.8142 137.604C22.2542 137.236 21.8622 136.732 21.6382 136.092L22.8262 135.396C23.1622 136.34 23.8582 136.812 24.9142 136.812C25.4342 136.812 25.8222 136.712 26.0782 136.512C26.3422 136.304 26.4742 136.036 26.4742 135.708C26.4742 135.364 26.3342 135.104 26.0542 134.928C25.7742 134.744 25.2782 134.544 24.5662 134.328C24.1662 134.208 23.8422 134.096 23.5942 133.992C23.3462 133.888 23.0822 133.744 22.8022 133.56C22.5302 133.368 22.3262 133.132 22.1902 132.852C22.0542 132.572 21.9862 132.244 21.9862 131.868C21.9862 131.124 22.2502 130.536 22.7782 130.104C23.3062 129.664 23.9422 129.444 24.6862 129.444C25.3582 129.444 25.9462 129.608 26.4502 129.936C26.9542 130.264 27.3422 130.716 27.6142 131.292L26.4502 131.964C26.0982 131.18 25.5102 130.788 24.6862 130.788C24.2862 130.788 23.9662 130.884 23.7262 131.076C23.4862 131.26 23.3662 131.512 23.3662 131.832C23.3662 132.144 23.4862 132.392 23.7262 132.576C23.9742 132.752 24.4182 132.94 25.0582 133.14C25.3782 133.244 25.6102 133.324 25.7542 133.38C25.9062 133.428 26.1142 133.508 26.3782 133.62C26.6502 133.732 26.8542 133.844 26.9902 133.956C27.1262 134.068 27.2702 134.208 27.4222 134.376C27.5822 134.544 27.6942 134.736 27.7582 134.952C27.8222 135.168 27.8542 135.412 27.8542 135.684C27.8542 136.444 27.5782 137.048 27.0262 137.496C26.4822 137.936 25.7662 138.156 24.8782 138.156Z" fill="#1A3555"/>
<path opacity="0.5" d="M6.06 222H4.512L2.052 219.228V222H0.756V216H2.052V218.652L4.38 216H5.964L3.324 218.94L6.06 222ZM11.2033 216H12.4993V222H11.2033V221.136C10.7153 221.816 10.0153 222.156 9.10331 222.156C8.27931 222.156 7.57531 221.852 6.99131 221.244C6.40731 220.628 6.11531 219.88 6.11531 219C6.11531 218.112 6.40731 217.364 6.99131 216.756C7.57531 216.148 8.27931 215.844 9.10331 215.844C10.0153 215.844 10.7153 216.18 11.2033 216.852V216ZM7.95131 220.38C8.31131 220.74 8.76331 220.92 9.30731 220.92C9.85131 220.92 10.3033 220.74 10.6633 220.38C11.0233 220.012 11.2033 219.552 11.2033 219C11.2033 218.448 11.0233 217.992 10.6633 217.632C10.3033 217.264 9.85131 217.08 9.30731 217.08C8.76331 217.08 8.31131 217.264 7.95131 217.632C7.59131 217.992 7.41131 218.448 7.41131 219C7.41131 219.552 7.59131 220.012 7.95131 220.38ZM16.8419 222.156C15.9379 222.156 15.1819 221.852 14.5739 221.244C13.9739 220.636 13.6739 219.888 13.6739 219C13.6739 218.104 13.9739 217.356 14.5739 216.756C15.1819 216.148 15.9379 215.844 16.8419 215.844C17.4259 215.844 17.9579 215.984 18.4379 216.264C18.9179 216.544 19.2779 216.92 19.5179 217.392L18.4019 218.04C18.2659 217.752 18.0579 217.528 17.7779 217.368C17.5059 217.2 17.1899 217.116 16.8299 217.116C16.3019 217.116 15.8579 217.296 15.4979 217.656C15.1459 218.016 14.9699 218.464 14.9699 219C14.9699 219.536 15.1459 219.984 15.4979 220.344C15.8579 220.704 16.3019 220.884 16.8299 220.884C17.1819 220.884 17.4979 220.8 17.7779 220.632C18.0659 220.464 18.2819 220.24 18.4259 219.96L19.5419 220.596C19.2859 221.076 18.9179 221.456 18.4379 221.736C17.9579 222.016 17.4259 222.156 16.8419 222.156ZM23.2169 222.156C22.3129 222.156 21.5569 221.852 20.9489 221.244C20.3489 220.636 20.0489 219.888 20.0489 219C20.0489 218.104 20.3489 217.356 20.9489 216.756C21.5569 216.148 22.3129 215.844 23.2169 215.844C23.8009 215.844 24.3329 215.984 24.8129 216.264C25.2929 216.544 25.6529 216.92 25.8929 217.392L24.7769 218.04C24.6409 217.752 24.4329 217.528 24.1529 217.368C23.8809 217.2 23.5649 217.116 23.2049 217.116C22.6769 217.116 22.2329 217.296 21.8729 217.656C21.5209 218.016 21.3449 218.464 21.3449 219C21.3449 219.536 21.5209 219.984 21.8729 220.344C22.2329 220.704 22.6769 220.884 23.2049 220.884C23.5569 220.884 23.8729 220.8 24.1529 220.632C24.4409 220.464 24.6569 220.24 24.8009 219.96L25.9169 220.596C25.6609 221.076 25.2929 221.456 24.8129 221.736C24.3329 222.016 23.8009 222.156 23.2169 222.156ZM31.2328 216H32.2288V222H30.9568V218.184L27.8848 222H26.8888V216H28.1608V219.804L31.2328 216ZM37.1286 215.844C37.9526 215.844 38.6566 216.152 39.2406 216.768C39.8246 217.376 40.1166 218.12 40.1166 219C40.1166 219.888 39.8246 220.636 39.2406 221.244C38.6566 221.852 37.9526 222.156 37.1286 222.156C36.2166 222.156 35.5166 221.82 35.0286 221.148V224.4H33.7326V216H35.0286V216.864C35.5166 216.184 36.2166 215.844 37.1286 215.844ZM35.5686 220.38C35.9286 220.74 36.3806 220.92 36.9246 220.92C37.4686 220.92 37.9206 220.74 38.2806 220.38C38.6406 220.012 38.8206 219.552 38.8206 219C38.8206 218.448 38.6406 217.992 38.2806 217.632C37.9206 217.264 37.4686 217.08 36.9246 217.08C36.3806 217.08 35.9286 217.264 35.5686 217.632C35.2086 217.992 35.0286 218.448 35.0286 219C35.0286 219.552 35.2086 220.012 35.5686 220.38ZM43.9072 218.04C44.5472 218.04 45.0712 218.224 45.4792 218.592C45.8872 218.952 46.0912 219.428 46.0912 220.02C46.0912 220.604 45.8872 221.08 45.4792 221.448C45.0712 221.816 44.5472 222 43.9072 222H41.2912V216H42.5872V218.04H43.9072ZM46.8112 216H48.1072V222H46.8112V216ZM43.9192 220.836C44.1752 220.836 44.3872 220.76 44.5552 220.608C44.7312 220.456 44.8192 220.26 44.8192 220.02C44.8192 219.772 44.7312 219.576 44.5552 219.432C44.3872 219.28 44.1752 219.204 43.9192 219.204H42.5872V220.836H43.9192Z" fill="#1A3555"/>
<path opacity="0.5" d="M202.588 7.156C201.684 7.156 200.928 6.852 200.32 6.244C199.72 5.636 199.42 4.888 199.42 4C199.42 3.104 199.72 2.356 200.32 1.756C200.928 1.148 201.684 0.844 202.588 0.844C203.172 0.844 203.704 0.984 204.184 1.264C204.664 1.544 205.024 1.92 205.264 2.392L204.148 3.04C204.012 2.752 203.804 2.528 203.524 2.368C203.252 2.2 202.936 2.116 202.576 2.116C202.048 2.116 201.604 2.296 201.244 2.656C200.892 3.016 200.716 3.464 200.716 4C200.716 4.536 200.892 4.984 201.244 5.344C201.604 5.704 202.048 5.884 202.576 5.884C202.928 5.884 203.244 5.8 203.524 5.632C203.812 5.464 204.028 5.24 204.172 4.96L205.288 5.596C205.032 6.076 204.664 6.456 204.184 6.736C203.704 7.016 203.172 7.156 202.588 7.156ZM210.75 1V2.248H208.794V7H207.498V2.248H205.53V1H210.75ZM216.145 1H217.441V7H216.145V6.136C215.657 6.816 214.957 7.156 214.045 7.156C213.221 7.156 212.517 6.852 211.933 6.244C211.349 5.628 211.057 4.88 211.057 4C211.057 3.112 211.349 2.364 211.933 1.756C212.517 1.148 213.221 0.844 214.045 0.844C214.957 0.844 215.657 1.18 216.145 1.852V1ZM212.893 5.38C213.253 5.74 213.705 5.92 214.249 5.92C214.793 5.92 215.245 5.74 215.605 5.38C215.965 5.012 216.145 4.552 216.145 4C216.145 3.448 215.965 2.992 215.605 2.632C215.245 2.264 214.793 2.08 214.249 2.08C213.705 2.08 213.253 2.264 212.893 2.632C212.533 2.992 212.353 3.448 212.353 4C212.353 4.552 212.533 5.012 212.893 5.38ZM223.535 1V2.248H221.579V7H220.283V2.248H218.315V1H223.535ZM228.756 1H229.752V7H228.48V3.184L225.408 7H224.412V1H225.684V4.804L228.756 1ZM234.088 7.156C233.184 7.156 232.428 6.852 231.82 6.244C231.22 5.636 230.92 4.888 230.92 4C230.92 3.104 231.22 2.356 231.82 1.756C232.428 1.148 233.184 0.844 234.088 0.844C234.672 0.844 235.204 0.984 235.684 1.264C236.164 1.544 236.524 1.92 236.764 2.392L235.648 3.04C235.512 2.752 235.304 2.528 235.024 2.368C234.752 2.2 234.436 2.116 234.076 2.116C233.548 2.116 233.104 2.296 232.744 2.656C232.392 3.016 232.216 3.464 232.216 4C232.216 4.536 232.392 4.984 232.744 5.344C233.104 5.704 233.548 5.884 234.076 5.884C234.428 5.884 234.744 5.8 235.024 5.632C235.312 5.464 235.528 5.24 235.672 4.96L236.788 5.596C236.532 6.076 236.164 6.456 235.684 6.736C235.204 7.016 234.672 7.156 234.088 7.156ZM242.25 1V2.248H240.294V7H238.998V2.248H237.03V1H242.25ZM247.471 1H248.467V7H247.195V3.184L244.123 7H243.127V1H244.399V4.804L247.471 1ZM255.275 7H253.727L251.267 4.228V7H249.971V1H251.267V3.652L253.595 1H255.179L252.539 3.94L255.275 7ZM260.418 1H261.714V7H260.418V6.136C259.93 6.816 259.23 7.156 258.318 7.156C257.494 7.156 256.79 6.852 256.206 6.244C255.622 5.628 255.33 4.88 255.33 4C255.33 3.112 255.622 2.364 256.206 1.756C256.79 1.148 257.494 0.844 258.318 0.844C259.23 0.844 259.93 1.18 260.418 1.852V1ZM257.166 5.38C257.526 5.74 257.978 5.92 258.522 5.92C259.066 5.92 259.518 5.74 259.878 5.38C260.238 5.012 260.418 4.552 260.418 4C260.418 3.448 260.238 2.992 259.878 2.632C259.518 2.264 259.066 2.08 258.522 2.08C257.978 2.08 257.526 2.264 257.166 2.632C256.806 2.992 256.626 3.448 256.626 4C256.626 4.552 256.806 5.012 257.166 5.38ZM271.565 1V7H270.269V2.224H267.521V7H266.225V1H271.565ZM276.465 0.844C277.289 0.844 277.993 1.152 278.577 1.768C279.161 2.376 279.453 3.12 279.453 4C279.453 4.888 279.161 5.636 278.577 6.244C277.993 6.852 277.289 7.156 276.465 7.156C275.553 7.156 274.853 6.82 274.365 6.148V9.4H273.069V1H274.365V1.864C274.853 1.184 275.553 0.844 276.465 0.844ZM274.905 5.38C275.265 5.74 275.717 5.92 276.261 5.92C276.805 5.92 277.257 5.74 277.617 5.38C277.977 5.012 278.157 4.552 278.157 4C278.157 3.448 277.977 2.992 277.617 2.632C277.257 2.264 276.805 2.08 276.261 2.08C275.717 2.08 275.265 2.264 274.905 2.632C274.545 2.992 274.365 3.448 274.365 4C274.365 4.552 274.545 5.012 274.905 5.38ZM283.459 7.156C282.579 7.156 281.831 6.852 281.215 6.244C280.599 5.636 280.291 4.888 280.291 4C280.291 3.112 280.599 2.364 281.215 1.756C281.831 1.148 282.579 0.844 283.459 0.844C284.347 0.844 285.095 1.148 285.703 1.756C286.319 2.364 286.627 3.112 286.627 4C286.627 4.888 286.319 5.636 285.703 6.244C285.095 6.852 284.347 7.156 283.459 7.156ZM282.127 5.356C282.487 5.716 282.931 5.896 283.459 5.896C283.987 5.896 284.431 5.716 284.791 5.356C285.151 4.996 285.331 4.544 285.331 4C285.331 3.456 285.151 3.004 284.791 2.644C284.431 2.284 283.987 2.104 283.459 2.104C282.931 2.104 282.487 2.284 282.127 2.644C281.767 3.004 281.587 3.456 281.587 4C281.587 4.544 281.767 4.996 282.127 5.356ZM292.845 5.776H293.649V8.608H292.377V7H288.261V8.608H286.989V5.776H287.721C288.089 5.256 288.273 4.532 288.273 3.604V1H292.845V5.776ZM289.149 5.776H291.573V2.188H289.545V3.604C289.545 4.46 289.413 5.184 289.149 5.776ZM299.219 1H300.515V7H299.219V6.136C298.731 6.816 298.031 7.156 297.119 7.156C296.295 7.156 295.591 6.852 295.007 6.244C294.423 5.628 294.131 4.88 294.131 4C294.131 3.112 294.423 2.364 295.007 1.756C295.591 1.148 296.295 0.844 297.119 0.844C298.031 0.844 298.731 1.18 299.219 1.852V1ZM295.967 5.38C296.327 5.74 296.779 5.92 297.323 5.92C297.867 5.92 298.319 5.74 298.679 5.38C299.039 5.012 299.219 4.552 299.219 4C299.219 3.448 299.039 2.992 298.679 2.632C298.319 2.264 297.867 2.08 297.323 2.08C296.779 2.08 296.327 2.264 295.967 2.632C295.607 2.992 295.427 3.448 295.427 4C295.427 4.552 295.607 5.012 295.967 5.38ZM309.754 7H308.278L306.238 4.228V7H304.966V4.252L302.926 7H301.45L303.79 3.94L301.57 1H303.046L304.966 3.628V1H306.238V3.64L308.158 1H309.634L307.414 3.94L309.754 7Z" fill="#1A3555"/>
<path opacity="0.5" d="M255.54 367.156C254.62 367.156 253.868 366.86 253.284 366.268C252.708 365.668 252.42 364.904 252.42 363.976C252.42 362.96 252.572 362.176 252.876 361.624C253.18 361.064 253.796 360.556 254.724 360.1C254.876 360.028 255.1 359.924 255.396 359.788C255.7 359.652 255.908 359.556 256.02 359.5C256.132 359.436 256.272 359.348 256.44 359.236C256.608 359.116 256.732 358.992 256.812 358.864C256.892 358.728 256.956 358.568 257.004 358.384L258.06 358.996C258.028 359.172 257.976 359.336 257.904 359.488C257.832 359.632 257.728 359.768 257.592 359.896C257.456 360.024 257.336 360.128 257.232 360.208C257.136 360.288 256.972 360.384 256.74 360.496C256.508 360.608 256.336 360.688 256.224 360.736C256.12 360.784 255.92 360.868 255.624 360.988C255.096 361.196 254.708 361.412 254.46 361.636C254.22 361.852 254.052 362.124 253.956 362.452C254.436 361.908 255.088 361.636 255.912 361.636C256.616 361.636 257.228 361.888 257.748 362.392C258.276 362.896 258.54 363.548 258.54 364.348C258.54 365.164 258.26 365.836 257.7 366.364C257.148 366.892 256.428 367.156 255.54 367.156ZM255.528 365.944C256.032 365.944 256.444 365.796 256.764 365.5C257.084 365.196 257.244 364.812 257.244 364.348C257.244 363.876 257.084 363.488 256.764 363.184C256.452 362.88 256.044 362.728 255.54 362.728C255.092 362.728 254.688 362.872 254.328 363.16C253.968 363.44 253.788 363.816 253.788 364.288C253.788 364.768 253.956 365.164 254.292 365.476C254.628 365.788 255.04 365.944 255.528 365.944ZM264.317 361H265.613V367H264.317V366.136C263.829 366.816 263.129 367.156 262.217 367.156C261.393 367.156 260.689 366.852 260.105 366.244C259.521 365.628 259.229 364.88 259.229 364C259.229 363.112 259.521 362.364 260.105 361.756C260.689 361.148 261.393 360.844 262.217 360.844C263.129 360.844 263.829 361.18 264.317 361.852V361ZM261.065 365.38C261.425 365.74 261.877 365.92 262.421 365.92C262.965 365.92 263.417 365.74 263.777 365.38C264.137 365.012 264.317 364.552 264.317 364C264.317 363.448 264.137 362.992 263.777 362.632C263.417 362.264 262.965 362.08 262.421 362.08C261.877 362.08 261.425 362.264 261.065 362.632C260.705 362.992 260.525 363.448 260.525 364C260.525 364.552 260.705 365.012 261.065 365.38ZM271.167 361H272.463V367H271.167V364.612H268.419V367H267.123V361H268.419V363.388H271.167V361ZM279.271 367H277.723L275.263 364.228V367H273.967V361H275.263V363.652L277.591 361H279.175L276.535 363.94L279.271 367ZM282.494 367.156C281.614 367.156 280.866 366.852 280.25 366.244C279.634 365.636 279.326 364.888 279.326 364C279.326 363.112 279.634 362.364 280.25 361.756C280.866 361.148 281.614 360.844 282.494 360.844C283.382 360.844 284.13 361.148 284.738 361.756C285.354 362.364 285.662 363.112 285.662 364C285.662 364.888 285.354 365.636 284.738 366.244C284.13 366.852 283.382 367.156 282.494 367.156ZM281.162 365.356C281.522 365.716 281.966 365.896 282.494 365.896C283.022 365.896 283.466 365.716 283.826 365.356C284.186 364.996 284.366 364.544 284.366 364C284.366 363.456 284.186 363.004 283.826 362.644C283.466 362.284 283.022 362.104 282.494 362.104C281.966 362.104 281.522 362.284 281.162 362.644C280.802 363.004 280.622 363.456 280.622 364C280.622 364.544 280.802 364.996 281.162 365.356ZM290.986 363.916C291.578 364.188 291.874 364.648 291.874 365.296C291.874 365.8 291.702 366.212 291.358 366.532C291.022 366.844 290.538 367 289.906 367H286.834V361H289.666C290.282 361 290.758 361.156 291.094 361.468C291.438 361.772 291.61 362.168 291.61 362.656C291.61 363.224 291.402 363.644 290.986 363.916ZM289.57 362.104H288.07V363.436H289.57C290.098 363.436 290.362 363.212 290.362 362.764C290.362 362.324 290.098 362.104 289.57 362.104ZM289.786 365.872C290.33 365.872 290.602 365.636 290.602 365.164C290.602 364.956 290.53 364.796 290.386 364.684C290.242 364.564 290.042 364.504 289.786 364.504H288.07V365.872H289.786ZM295.76 367.156C294.856 367.156 294.1 366.852 293.492 366.244C292.892 365.636 292.592 364.888 292.592 364C292.592 363.104 292.892 362.356 293.492 361.756C294.1 361.148 294.856 360.844 295.76 360.844C296.344 360.844 296.876 360.984 297.356 361.264C297.836 361.544 298.196 361.92 298.436 362.392L297.32 363.04C297.184 362.752 296.976 362.528 296.696 362.368C296.424 362.2 296.108 362.116 295.748 362.116C295.22 362.116 294.776 362.296 294.416 362.656C294.064 363.016 293.888 363.464 293.888 364C293.888 364.536 294.064 364.984 294.416 365.344C294.776 365.704 295.22 365.884 295.748 365.884C296.1 365.884 296.416 365.8 296.696 365.632C296.984 365.464 297.2 365.24 297.344 364.96L298.46 365.596C298.204 366.076 297.836 366.456 297.356 366.736C296.876 367.016 296.344 367.156 295.76 367.156ZM304.736 367H303.188L300.728 364.228V367H299.432V361H300.728V363.652L303.056 361H304.64L302 363.94L304.736 367ZM309.952 361H310.948V367H309.676V363.184L306.604 367H305.608V361H306.88V364.804L309.952 361ZM313.471 364.552C313.567 365.008 313.787 365.36 314.131 365.608C314.475 365.848 314.895 365.968 315.391 365.968C316.079 365.968 316.595 365.72 316.939 365.224L318.007 365.848C317.415 366.72 316.539 367.156 315.379 367.156C314.403 367.156 313.615 366.86 313.015 366.268C312.415 365.668 312.115 364.912 312.115 364C312.115 363.104 312.411 362.356 313.003 361.756C313.595 361.148 314.355 360.844 315.283 360.844C316.163 360.844 316.883 361.152 317.443 361.768C318.011 362.384 318.295 363.132 318.295 364.012C318.295 364.148 318.279 364.328 318.247 364.552H313.471ZM313.459 363.496H316.987C316.899 363.008 316.695 362.64 316.375 362.392C316.063 362.144 315.695 362.02 315.271 362.02C314.791 362.02 314.391 362.152 314.071 362.416C313.751 362.68 313.547 363.04 313.459 363.496ZM325.268 367.156C324.364 367.156 323.608 366.852 323 366.244C322.4 365.636 322.1 364.888 322.1 364C322.1 363.104 322.4 362.356 323 361.756C323.608 361.148 324.364 360.844 325.268 360.844C325.852 360.844 326.384 360.984 326.864 361.264C327.344 361.544 327.704 361.92 327.944 362.392L326.828 363.04C326.692 362.752 326.484 362.528 326.204 362.368C325.932 362.2 325.616 362.116 325.256 362.116C324.728 362.116 324.284 362.296 323.924 362.656C323.572 363.016 323.396 363.464 323.396 364C323.396 364.536 323.572 364.984 323.924 365.344C324.284 365.704 324.728 365.884 325.256 365.884C325.608 365.884 325.924 365.8 326.204 365.632C326.492 365.464 326.708 365.24 326.852 364.96L327.968 365.596C327.712 366.076 327.344 366.456 326.864 366.736C326.384 367.016 325.852 367.156 325.268 367.156ZM332.47 361H333.766V367H332.47V364.972C331.99 365.148 331.486 365.236 330.958 365.236C330.214 365.236 329.626 365.052 329.194 364.684C328.762 364.316 328.546 363.776 328.546 363.064V361H329.842V362.944C329.842 363.664 330.27 364.024 331.126 364.024C331.63 364.024 332.078 363.932 332.47 363.748V361ZM336.299 364.552C336.395 365.008 336.615 365.36 336.959 365.608C337.303 365.848 337.723 365.968 338.219 365.968C338.907 365.968 339.423 365.72 339.767 365.224L340.835 365.848C340.243 366.72 339.367 367.156 338.207 367.156C337.231 367.156 336.443 366.86 335.843 366.268C335.243 365.668 334.943 364.912 334.943 364C334.943 363.104 335.239 362.356 335.831 361.756C336.423 361.148 337.183 360.844 338.111 360.844C338.991 360.844 339.711 361.152 340.271 361.768C340.839 362.384 341.123 363.132 341.123 364.012C341.123 364.148 341.107 364.328 341.075 364.552H336.299ZM336.287 363.496H339.815C339.727 363.008 339.523 362.64 339.203 362.392C338.891 362.144 338.523 362.02 338.099 362.02C337.619 362.02 337.219 362.152 336.899 362.416C336.579 362.68 336.375 363.04 336.287 363.496ZM346.613 361V362.248H344.657V367H343.361V362.248H341.393V361H346.613ZM352.008 361H353.304V367H352.008V366.136C351.52 366.816 350.82 367.156 349.908 367.156C349.084 367.156 348.38 366.852 347.796 366.244C347.212 365.628 346.92 364.88 346.92 364C346.92 363.112 347.212 362.364 347.796 361.756C348.38 361.148 349.084 360.844 349.908 360.844C350.82 360.844 351.52 361.18 352.008 361.852V361ZM348.756 365.38C349.116 365.74 349.568 365.92 350.112 365.92C350.656 365.92 351.108 365.74 351.468 365.38C351.828 365.012 352.008 364.552 352.008 364C352.008 363.448 351.828 362.992 351.468 362.632C351.108 362.264 350.656 362.08 350.112 362.08C349.568 362.08 349.116 362.264 348.756 362.632C348.396 362.992 348.216 363.448 348.216 364C348.216 364.552 348.396 365.012 348.756 365.38ZM363.095 365.776H363.899V368.608H362.627V367H358.511V368.608H357.239V365.776H357.971C358.339 365.256 358.523 364.532 358.523 363.604V361H363.095V365.776ZM359.399 365.776H361.823V362.188H359.795V363.604C359.795 364.46 359.663 365.184 359.399 365.776ZM370.015 361V367H368.719V362.248H366.715V364.48C366.715 365.432 366.507 366.108 366.091 366.508C365.675 366.908 365.083 367.072 364.315 367V365.788C364.683 365.852 364.959 365.776 365.143 365.56C365.327 365.344 365.419 364.964 365.419 364.42V361H370.015ZM376.17 361V367H374.898V364.984H374.178L372.654 367H371.13L372.75 364.864C372.334 364.728 371.998 364.488 371.742 364.144C371.494 363.8 371.37 363.416 371.37 362.992C371.37 362.44 371.566 361.972 371.958 361.588C372.358 361.196 372.87 361 373.494 361H376.17ZM373.566 363.868H374.898V362.176H373.566C373.302 362.176 373.082 362.252 372.906 362.404C372.73 362.556 372.642 362.764 372.642 363.028C372.642 363.284 372.73 363.488 372.906 363.64C373.082 363.792 373.302 363.868 373.566 363.868ZM256.128 380.928C256.768 381.216 257.088 381.692 257.088 382.356C257.088 382.868 256.88 383.296 256.464 383.64C256.048 383.984 255.468 384.156 254.724 384.156C253.516 384.156 252.7 383.676 252.276 382.716L253.332 382.092C253.548 382.692 254.016 382.992 254.736 382.992C255.072 382.992 255.336 382.924 255.528 382.788C255.72 382.644 255.816 382.456 255.816 382.224C255.816 382.016 255.74 381.852 255.588 381.732C255.436 381.604 255.224 381.54 254.952 381.54H254.1V380.4H254.736C255 380.4 255.204 380.34 255.348 380.22C255.5 380.092 255.576 379.92 255.576 379.704C255.576 379.496 255.492 379.328 255.324 379.2C255.156 379.064 254.932 378.996 254.652 378.996C254.052 378.996 253.636 379.26 253.404 379.788L252.348 379.188C252.796 378.292 253.556 377.844 254.628 377.844C255.3 377.844 255.832 378.016 256.224 378.36C256.624 378.696 256.824 379.108 256.824 379.596C256.824 380.196 256.592 380.64 256.128 380.928ZM262.899 378H264.195V384H262.899V383.136C262.411 383.816 261.711 384.156 260.799 384.156C259.975 384.156 259.271 383.852 258.687 383.244C258.103 382.628 257.811 381.88 257.811 381C257.811 380.112 258.103 379.364 258.687 378.756C259.271 378.148 259.975 377.844 260.799 377.844C261.711 377.844 262.411 378.18 262.899 378.852V378ZM259.647 382.38C260.007 382.74 260.459 382.92 261.003 382.92C261.547 382.92 261.999 382.74 262.359 382.38C262.719 382.012 262.899 381.552 262.899 381C262.899 380.448 262.719 379.992 262.359 379.632C261.999 379.264 261.547 379.08 261.003 379.08C260.459 379.08 260.007 379.264 259.647 379.632C259.287 379.992 259.107 380.448 259.107 381C259.107 381.552 259.287 382.012 259.647 382.38ZM269.353 378H270.649V384H269.353V381.972C268.873 382.148 268.369 382.236 267.841 382.236C267.097 382.236 266.509 382.052 266.077 381.684C265.645 381.316 265.429 380.776 265.429 380.064V378H266.725V379.944C266.725 380.664 267.153 381.024 268.009 381.024C268.513 381.024 268.961 380.932 269.353 380.748V378ZM276.506 378H277.502V384H276.23V380.184L273.158 384H272.162V378H273.434V381.804L276.506 378ZM281.838 384.156C280.934 384.156 280.178 383.852 279.57 383.244C278.97 382.636 278.67 381.888 278.67 381C278.67 380.104 278.97 379.356 279.57 378.756C280.178 378.148 280.934 377.844 281.838 377.844C282.422 377.844 282.954 377.984 283.434 378.264C283.914 378.544 284.274 378.92 284.514 379.392L283.398 380.04C283.262 379.752 283.054 379.528 282.774 379.368C282.502 379.2 282.186 379.116 281.826 379.116C281.298 379.116 280.854 379.296 280.494 379.656C280.142 380.016 279.966 380.464 279.966 381C279.966 381.536 280.142 381.984 280.494 382.344C280.854 382.704 281.298 382.884 281.826 382.884C282.178 382.884 282.494 382.8 282.774 382.632C283.062 382.464 283.278 382.24 283.422 381.96L284.538 382.596C284.282 383.076 283.914 383.456 283.434 383.736C282.954 384.016 282.422 384.156 281.838 384.156ZM290.457 378V384H289.161V379.248H287.157V381.48C287.157 382.432 286.949 383.108 286.533 383.508C286.117 383.908 285.525 384.072 284.757 384V382.788C285.125 382.852 285.401 382.776 285.585 382.56C285.769 382.344 285.861 381.964 285.861 381.42V378H290.457ZM292.987 381.552C293.083 382.008 293.303 382.36 293.647 382.608C293.991 382.848 294.411 382.968 294.907 382.968C295.595 382.968 296.111 382.72 296.455 382.224L297.523 382.848C296.931 383.72 296.055 384.156 294.895 384.156C293.919 384.156 293.131 383.86 292.531 383.268C291.931 382.668 291.631 381.912 291.631 381C291.631 380.104 291.927 379.356 292.519 378.756C293.111 378.148 293.871 377.844 294.799 377.844C295.679 377.844 296.399 378.152 296.959 378.768C297.527 379.384 297.811 380.132 297.811 381.012C297.811 381.148 297.795 381.328 297.763 381.552H292.987ZM292.975 380.496H296.503C296.415 380.008 296.211 379.64 295.891 379.392C295.579 379.144 295.211 379.02 294.787 379.02C294.307 379.02 293.907 379.152 293.587 379.416C293.267 379.68 293.063 380.04 292.975 380.496ZM302.995 378H304.291V384H302.995V381.612H300.247V384H298.951V378H300.247V380.388H302.995V378ZM310.139 378H311.135V384H309.863V380.184L306.791 384H305.795V378H307.067V381.804L310.139 378ZM317.283 378V384H316.011V381.984H315.291L313.767 384H312.243L313.863 381.864C313.447 381.728 313.111 381.488 312.855 381.144C312.607 380.8 312.483 380.416 312.483 379.992C312.483 379.44 312.679 378.972 313.071 378.588C313.471 378.196 313.983 378 314.607 378H317.283ZM314.679 380.868H316.011V379.176H314.679C314.415 379.176 314.195 379.252 314.019 379.404C313.843 379.556 313.755 379.764 313.755 380.028C313.755 380.284 313.843 380.488 314.019 380.64C314.195 380.792 314.415 380.868 314.679 380.868ZM324.623 384.156C323.719 384.156 322.963 383.852 322.355 383.244C321.755 382.636 321.455 381.888 321.455 381C321.455 380.104 321.755 379.356 322.355 378.756C322.963 378.148 323.719 377.844 324.623 377.844C325.207 377.844 325.739 377.984 326.219 378.264C326.699 378.544 327.059 378.92 327.299 379.392L326.183 380.04C326.047 379.752 325.839 379.528 325.559 379.368C325.287 379.2 324.971 379.116 324.611 379.116C324.083 379.116 323.639 379.296 323.279 379.656C322.927 380.016 322.751 380.464 322.751 381C322.751 381.536 322.927 381.984 323.279 382.344C323.639 382.704 324.083 382.884 324.611 382.884C324.963 382.884 325.279 382.8 325.559 382.632C325.847 382.464 326.063 382.24 326.207 381.96L327.323 382.596C327.067 383.076 326.699 383.456 326.219 383.736C325.739 384.016 325.207 384.156 324.623 384.156ZM331.691 377.844C332.515 377.844 333.219 378.152 333.803 378.768C334.387 379.376 334.679 380.12 334.679 381C334.679 381.888 334.387 382.636 333.803 383.244C333.219 383.852 332.515 384.156 331.691 384.156C330.779 384.156 330.079 383.82 329.591 383.148V386.4H328.295V378H329.591V378.864C330.079 378.184 330.779 377.844 331.691 377.844ZM330.131 382.38C330.491 382.74 330.943 382.92 331.487 382.92C332.031 382.92 332.483 382.74 332.843 382.38C333.203 382.012 333.383 381.552 333.383 381C333.383 380.448 333.203 379.992 332.843 379.632C332.483 379.264 332.031 379.08 331.487 379.08C330.943 379.08 330.491 379.264 330.131 379.632C329.771 379.992 329.591 380.448 329.591 381C329.591 381.552 329.771 382.012 330.131 382.38ZM336.874 381.552C336.97 382.008 337.19 382.36 337.534 382.608C337.878 382.848 338.298 382.968 338.794 382.968C339.482 382.968 339.998 382.72 340.342 382.224L341.41 382.848C340.818 383.72 339.942 384.156 338.782 384.156C337.806 384.156 337.018 383.86 336.418 383.268C335.818 382.668 335.518 381.912 335.518 381C335.518 380.104 335.814 379.356 336.406 378.756C336.998 378.148 337.758 377.844 338.686 377.844C339.566 377.844 340.286 378.152 340.846 378.768C341.414 379.384 341.698 380.132 341.698 381.012C341.698 381.148 341.682 381.328 341.65 381.552H336.874ZM336.862 380.496H340.39C340.302 380.008 340.098 379.64 339.778 379.392C339.466 379.144 339.098 379.02 338.674 379.02C338.194 379.02 337.794 379.152 337.474 379.416C337.154 379.68 336.95 380.04 336.862 380.496ZM347.884 382.776H348.688V385.608H347.416V384H343.3V385.608H342.028V382.776H342.76C343.128 382.256 343.312 381.532 343.312 380.604V378H347.884V382.776ZM344.188 382.776H346.612V379.188H344.584V380.604C344.584 381.46 344.452 382.184 344.188 382.776ZM352.338 384.156C351.434 384.156 350.678 383.852 350.07 383.244C349.47 382.636 349.17 381.888 349.17 381C349.17 380.104 349.47 379.356 350.07 378.756C350.678 378.148 351.434 377.844 352.338 377.844C352.922 377.844 353.454 377.984 353.934 378.264C354.414 378.544 354.774 378.92 355.014 379.392L353.898 380.04C353.762 379.752 353.554 379.528 353.274 379.368C353.002 379.2 352.686 379.116 352.326 379.116C351.798 379.116 351.354 379.296 350.994 379.656C350.642 380.016 350.466 380.464 350.466 381C350.466 381.536 350.642 381.984 350.994 382.344C351.354 382.704 351.798 382.884 352.326 382.884C352.678 382.884 352.994 382.8 353.274 382.632C353.562 382.464 353.778 382.24 353.922 381.96L355.038 382.596C354.782 383.076 354.414 383.456 353.934 383.736C353.454 384.016 352.922 384.156 352.338 384.156ZM360.5 378V379.248H358.544V384H357.248V379.248H355.28V378H360.5ZM365.529 380.916C366.121 381.188 366.417 381.648 366.417 382.296C366.417 382.8 366.245 383.212 365.901 383.532C365.565 383.844 365.081 384 364.449 384H361.377V378H364.209C364.825 378 365.301 378.156 365.637 378.468C365.981 378.772 366.153 379.168 366.153 379.656C366.153 380.224 365.945 380.644 365.529 380.916ZM364.113 379.104H362.613V380.436H364.113C364.641 380.436 364.905 380.212 364.905 379.764C364.905 379.324 364.641 379.104 364.113 379.104ZM364.329 382.872C364.873 382.872 365.145 382.636 365.145 382.164C365.145 381.956 365.073 381.796 364.929 381.684C364.785 381.564 364.585 381.504 364.329 381.504H362.613V382.872H364.329Z" fill="#1A3555"/>
<path opacity="0.5" d="M10.34 332V333.248H8.384V338H7.088V333.248H5.12V332H10.34ZM13.8146 338.156C12.9346 338.156 12.1866 337.852 11.5706 337.244C10.9546 336.636 10.6466 335.888 10.6466 335C10.6466 334.112 10.9546 333.364 11.5706 332.756C12.1866 332.148 12.9346 331.844 13.8146 331.844C14.7026 331.844 15.4506 332.148 16.0586 332.756C16.6746 333.364 16.9826 334.112 16.9826 335C16.9826 335.888 16.6746 336.636 16.0586 337.244C15.4506 337.852 14.7026 338.156 13.8146 338.156ZM12.4826 336.356C12.8426 336.716 13.2866 336.896 13.8146 336.896C14.3426 336.896 14.7866 336.716 15.1466 336.356C15.5066 335.996 15.6866 335.544 15.6866 335C15.6866 334.456 15.5066 334.004 15.1466 333.644C14.7866 333.284 14.3426 333.104 13.8146 333.104C13.2866 333.104 12.8426 333.284 12.4826 333.644C12.1226 334.004 11.9426 334.456 11.9426 335C11.9426 335.544 12.1226 335.996 12.4826 336.356ZM21.5504 331.844C22.3744 331.844 23.0784 332.152 23.6624 332.768C24.2464 333.376 24.5384 334.12 24.5384 335C24.5384 335.888 24.2464 336.636 23.6624 337.244C23.0784 337.852 22.3744 338.156 21.5504 338.156C20.6384 338.156 19.9384 337.82 19.4504 337.148V340.4H18.1544V332H19.4504V332.864C19.9384 332.184 20.6384 331.844 21.5504 331.844ZM19.9904 336.38C20.3504 336.74 20.8024 336.92 21.3464 336.92C21.8904 336.92 22.3424 336.74 22.7024 336.38C23.0624 336.012 23.2424 335.552 23.2424 335C23.2424 334.448 23.0624 333.992 22.7024 333.632C22.3424 333.264 21.8904 333.08 21.3464 333.08C20.8024 333.08 20.3504 333.264 19.9904 333.632C19.6304 333.992 19.4504 334.448 19.4504 335C19.4504 335.552 19.6304 336.012 19.9904 336.38ZM29.733 332V333.248H27.009V338H25.713V332H29.733ZM33.2091 338.156C32.3291 338.156 31.5811 337.852 30.9651 337.244C30.3491 336.636 30.0411 335.888 30.0411 335C30.0411 334.112 30.3491 333.364 30.9651 332.756C31.5811 332.148 32.3291 331.844 33.2091 331.844C34.0971 331.844 34.8451 332.148 35.4531 332.756C36.0691 333.364 36.3771 334.112 36.3771 335C36.3771 335.888 36.0691 336.636 35.4531 337.244C34.8451 337.852 34.0971 338.156 33.2091 338.156ZM31.8771 336.356C32.2371 336.716 32.6811 336.896 33.2091 336.896C33.7371 336.896 34.1811 336.716 34.5411 336.356C34.9011 335.996 35.0811 335.544 35.0811 335C35.0811 334.456 34.9011 334.004 34.5411 333.644C34.1811 333.284 33.7371 333.104 33.2091 333.104C32.6811 333.104 32.2371 333.284 31.8771 333.644C31.5171 334.004 31.3371 334.456 31.3371 335C31.3371 335.544 31.5171 335.996 31.8771 336.356ZM41.701 334.916C42.293 335.188 42.589 335.648 42.589 336.296C42.589 336.8 42.417 337.212 42.073 337.532C41.737 337.844 41.253 338 40.621 338H37.549V332H40.381C40.997 332 41.473 332.156 41.809 332.468C42.153 332.772 42.325 333.168 42.325 333.656C42.325 334.224 42.117 334.644 41.701 334.916ZM40.285 333.104H38.785V334.436H40.285C40.813 334.436 41.077 334.212 41.077 333.764C41.077 333.324 40.813 333.104 40.285 333.104ZM40.501 336.872C41.045 336.872 41.317 336.636 41.317 336.164C41.317 335.956 41.245 335.796 41.101 335.684C40.957 335.564 40.757 335.504 40.501 335.504H38.785V336.872H40.501ZM46.2587 334.04C46.8987 334.04 47.4227 334.224 47.8307 334.592C48.2387 334.952 48.4427 335.428 48.4427 336.02C48.4427 336.604 48.2387 337.08 47.8307 337.448C47.4227 337.816 46.8987 338 46.2587 338H43.6427V332H44.9387V334.04H46.2587ZM49.1627 332H50.4587V338H49.1627V332ZM46.2707 336.836C46.5267 336.836 46.7387 336.76 46.9067 336.608C47.0827 336.456 47.1707 336.26 47.1707 336.02C47.1707 335.772 47.0827 335.576 46.9067 335.432C46.7387 335.28 46.5267 335.204 46.2707 335.204H44.9387V336.836H46.2707ZM52.983 335.552C53.079 336.008 53.299 336.36 53.643 336.608C53.987 336.848 54.407 336.968 54.903 336.968C55.591 336.968 56.107 336.72 56.451 336.224L57.519 336.848C56.927 337.72 56.051 338.156 54.891 338.156C53.915 338.156 53.127 337.86 52.527 337.268C51.927 336.668 51.627 335.912 51.627 335C51.627 334.104 51.923 333.356 52.515 332.756C53.107 332.148 53.867 331.844 54.795 331.844C55.675 331.844 56.395 332.152 56.955 332.768C57.523 333.384 57.807 334.132 57.807 335.012C57.807 335.148 57.791 335.328 57.759 335.552H52.983ZM52.971 334.496H56.499C56.411 334.008 56.207 333.64 55.887 333.392C55.575 333.144 55.207 333.02 54.783 333.02C54.303 333.02 53.903 333.152 53.583 333.416C53.263 333.68 53.059 334.04 52.971 334.496ZM66.5314 332V333.248H64.5754V338H63.2794V333.248H61.3114V332H66.5314ZM70.006 338.156C69.126 338.156 68.378 337.852 67.762 337.244C67.146 336.636 66.838 335.888 66.838 335C66.838 334.112 67.146 333.364 67.762 332.756C68.378 332.148 69.126 331.844 70.006 331.844C70.894 331.844 71.642 332.148 72.25 332.756C72.866 333.364 73.174 334.112 73.174 335C73.174 335.888 72.866 336.636 72.25 337.244C71.642 337.852 70.894 338.156 70.006 338.156ZM68.674 336.356C69.034 336.716 69.478 336.896 70.006 336.896C70.534 336.896 70.978 336.716 71.338 336.356C71.698 335.996 71.878 335.544 71.878 335C71.878 334.456 71.698 334.004 71.338 333.644C70.978 333.284 70.534 333.104 70.006 333.104C69.478 333.104 69.034 333.284 68.674 333.644C68.314 334.004 68.134 334.456 68.134 335C68.134 335.544 68.314 335.996 68.674 336.356ZM77.8767 332H79.1727V338H77.8767V335.972C77.3967 336.148 76.8927 336.236 76.3647 336.236C75.6207 336.236 75.0327 336.052 74.6007 335.684C74.1687 335.316 73.9527 334.776 73.9527 334.064V332H75.2487V333.944C75.2487 334.664 75.6767 335.024 76.5327 335.024C77.0367 335.024 77.4847 334.932 77.8767 334.748V332ZM85.9897 338H84.4417L81.9817 335.228V338H80.6857V332H81.9817V334.652L84.3097 332H85.8937L83.2537 334.94L85.9897 338ZM91.2055 332H92.2015V338H90.9295V334.184L87.8575 338H86.8615V332H88.1335V335.804L91.2055 332Z" fill="#1A3555"/>
<g opacity="0.5">
<path d="M150 53V27H78" stroke="#004C92"/>
<circle r="2.5" transform="matrix(-1 0 0 1 149.5 53.5)" fill="#1A3555"/>
</g>
<g opacity="0.5">
<path d="M185 312V338H113" stroke="#004C92"/>
<circle cx="184.5" cy="311.5" r="2.5" transform="rotate(-180 184.5 311.5)" fill="#1A3555"/>
</g>
<path opacity="0.5" d="M38.176 27H36.532L33.22 23.004V27H31.84V18.6H33.22V22.368L36.412 18.6H38.056L34.66 22.692L38.176 27ZM45.4065 27H43.7625L40.4505 23.004V27H39.0705V18.6H40.4505V22.368L43.6425 18.6H45.2865L41.8905 22.692L45.4065 27ZM54.3409 18.6V27H52.9609V21.012L50.4049 25.236H50.2369L47.6809 21V27H46.3009V18.6H47.7889L50.3209 22.8L52.8649 18.6H54.3409Z" fill="#1A3555"/>
</svg>
